<svg width="42" height="41" fill="none" xmlns="http://www.w3.org/2000/svg"><path d="M32.313 40.467c-.516 0-1.02-.148-1.456-.425l-9.628-6.1a.425.425 0 00-.458 0l-8.948 5.668a2.98 2.98 0 01-3.404-.107 3.128 3.128 0 01-1.19-3.322l2.58-10.148a.525.525 0 00-.165-.532L1.01 18.315a2.8 2.8 0 01-.867-3.036 2.744 2.744 0 012.434-1.91l11.275-.73a.46.46 0 00.393-.302l4.206-10.59a2.733 2.733 0 015.098 0l4.206 10.59a.46.46 0 00.393.301l11.275.732a2.743 2.743 0 012.434 1.909 2.8 2.8 0 01-.867 3.036L32.356 25.5a.525.525 0 00-.164.532l2.782 10.942a2.796 2.796 0 01-1.065 2.97 2.714 2.714 0 01-1.596.522zM21 31.587a2.714 2.714 0 011.455.42l9.628 6.1a.403.403 0 00.48-.016.499.499 0 00.19-.551l-2.781-10.943a2.826 2.826 0 01.919-2.857l8.634-7.186a.507.507 0 00.154-.566.446.446 0 00-.404-.332l-11.276-.732a2.767 2.767 0 01-2.374-1.742L21.42 2.592a.444.444 0 00-.84 0l-4.205 10.59A2.767 2.767 0 0114 14.924l-11.275.732a.447.447 0 00-.405.332.507.507 0 00.155.566l8.633 7.186a2.826 2.826 0 01.92 2.857l-2.58 10.148a.83.83 0 00.315.904.717.717 0 00.834.026l8.947-5.668c.435-.275.94-.421 1.455-.42z" fill="#EE4E34"/></svg>