<svg width="52" height="54" fill="none" xmlns="http://www.w3.org/2000/svg"><path d="M26.756 19.065a7.692 7.692 0 106.898 6.898 7.708 7.708 0 00-6.898-6.898v0zm18.52 7.654a18.497 18.497 0 01-.184 2.499l5.434 4.262a1.299 1.299 0 01.294 1.652l-5.14 8.894a1.3 1.3 0 01-1.58.552l-5.395-2.173a1.936 1.936 0 00-1.823.21 19.776 19.776 0 01-2.59 1.507 1.915 1.915 0 00-1.06 1.46l-.808 5.755a1.331 1.331 0 01-1.284 1.102H20.86a1.335 1.335 0 01-1.285-1.066l-.808-5.747a1.93 1.93 0 00-1.081-1.47 18.663 18.663 0 01-2.58-1.51 1.923 1.923 0 00-1.816-.205l-5.395 2.171a1.299 1.299 0 01-1.579-.55l-5.14-8.894a1.298 1.298 0 01.294-1.652l4.593-3.606a1.929 1.929 0 00.72-1.692 17.45 17.45 0 01-.069-1.502c0-.501.025-.994.07-1.485a1.923 1.923 0 00-.73-1.675l-4.59-3.605a1.299 1.299 0 01-.284-1.645l5.14-8.893A1.3 1.3 0 017.9 8.86l5.395 2.173a1.936 1.936 0 001.823-.21 19.773 19.773 0 012.59-1.507 1.915 1.915 0 001.06-1.46l.808-5.755A1.331 1.331 0 0120.86 1h10.28a1.335 1.335 0 011.285 1.066l.808 5.747a1.93 1.93 0 001.081 1.469c.9.434 1.761.939 2.58 1.51a1.923 1.923 0 001.816.206l5.395-2.172a1.3 1.3 0 011.579.55l5.14 8.894a1.298 1.298 0 01-.294 1.653l-4.593 3.606a1.93 1.93 0 00-.727 1.692c.04.497.066.997.066 1.498v0z" stroke="#FFEE7D" stroke-width="2" stroke-linecap="round" stroke-linejoin="round"/></svg>