<svg width="64" height="55" viewBox="0 0 64 55" fill="none" xmlns="http://www.w3.org/2000/svg">
<path d="M32 54.3913C31.5789 54.3937 31.1615 54.313 30.7717 54.1538C30.3818 53.9945 30.0273 53.7599 29.7283 53.4634L4.86763 28.5707C1.7492 25.4197 0 21.1655 0 16.7323C0 12.299 1.7492 8.04486 4.86763 4.89384C8.01044 1.75989 12.2677 0 16.706 0C21.1444 0 25.4016 1.75989 28.5445 4.89384L32 8.34938L35.4555 4.89384C38.5984 1.75989 42.8556 0 47.294 0C51.7323 0 55.9896 1.75989 59.1324 4.89384C62.2508 8.04486 64 12.299 64 16.7323C64 21.1655 62.2508 25.4197 59.1324 28.5707L34.2717 53.4634C33.9727 53.7599 33.6182 53.9945 33.2283 54.1538C32.8385 54.313 32.4211 54.3937 32 54.3913Z" fill="#10316B"/>
</svg>
