<svg width="42" height="41" viewBox="0 0 42 41" fill="none" xmlns="http://www.w3.org/2000/svg">
<path d="M32.3129 40.4666C31.7971 40.4661 31.2922 40.3187 30.8571 40.0416L21.2291 33.9417C21.1607 33.8979 21.0812 33.8746 21 33.8746C20.9188 33.8746 20.8393 33.8979 20.7709 33.9417L11.8235 39.6104C11.3131 39.9425 10.7131 40.1103 10.1044 40.0912C9.49567 40.072 8.90744 39.8669 8.41886 39.5033C7.90897 39.1337 7.52253 38.6188 7.31011 38.026C7.0977 37.4332 7.06921 36.79 7.22837 36.1808L9.8081 26.0327C9.83337 25.9375 9.83137 25.8372 9.80233 25.7432C9.77328 25.6491 9.71837 25.5652 9.64386 25.5009L1.01005 18.3148C0.57689 17.9547 0.262413 17.4723 0.107695 16.9307C-0.0470235 16.3891 -0.034789 15.8134 0.1428 15.2788C0.309481 14.7527 0.630963 14.2891 1.06525 13.9485C1.49954 13.608 2.02644 13.4063 2.57712 13.3699L13.8524 12.6382C13.9398 12.6307 14.0232 12.5984 14.0928 12.5451C14.1625 12.4918 14.2154 12.4196 14.2453 12.3372L18.4509 1.74733C18.6498 1.23286 18.9998 0.790626 19.4547 0.47876C19.9097 0.166895 20.4484 -4.9568e-06 21 1.10412e-10C21.5516 4.95702e-06 22.0903 0.166914 22.5453 0.478788C23.0003 0.790662 23.3502 1.2329 23.5491 1.74738L27.7545 12.337C27.7844 12.4195 27.8374 12.4916 27.9071 12.545C27.9767 12.5984 28.0602 12.6307 28.1476 12.6382L39.4229 13.3699C39.9736 13.4063 40.5005 13.608 40.9347 13.9485C41.369 14.2891 41.6905 14.7527 41.8572 15.2788C42.0348 15.8133 42.047 16.389 41.8923 16.9306C41.7377 17.4723 41.4232 17.9546 40.9901 18.3148L32.3561 25.5008C32.2816 25.5652 32.2267 25.6492 32.1977 25.7432C32.1686 25.8373 32.1666 25.9376 32.1919 26.0327L34.9737 36.9753C35.1159 37.5201 35.0903 38.0951 34.9003 38.6251C34.7102 39.1551 34.3646 39.6154 33.9087 39.9457C33.4452 40.2836 32.8865 40.466 32.3129 40.4666V40.4666ZM21 31.5866C21.515 31.586 22.0196 31.7316 22.455 32.0067V32.0067L32.083 38.1066C32.1541 38.1561 32.2393 38.1814 32.326 38.1786C32.4126 38.1759 32.496 38.1452 32.5638 38.0913C32.6493 38.0309 32.7137 37.9451 32.7477 37.8461C32.7817 37.7471 32.7837 37.6399 32.7534 37.5397L29.9716 26.597C29.8411 26.0826 29.8581 25.5417 30.0207 25.0365C30.1833 24.5312 30.4848 24.0819 30.8909 23.7401L39.5247 16.5541C39.6059 16.4873 39.6643 16.3969 39.6919 16.2955C39.7195 16.194 39.715 16.0865 39.6788 15.9878C39.6548 15.897 39.6028 15.8161 39.5302 15.7566C39.4577 15.697 39.3682 15.6618 39.2745 15.6559L27.9992 14.9241C27.4797 14.8867 26.9813 14.7034 26.5613 14.3953C26.1413 14.0871 25.8169 13.6667 25.6253 13.1823L21.4202 2.59281C21.3906 2.5048 21.3341 2.4283 21.2588 2.37411C21.1834 2.31991 21.0929 2.29076 21 2.29075C20.9072 2.29075 20.8167 2.31989 20.7413 2.37408C20.6659 2.42826 20.6094 2.50476 20.5798 2.59276L16.3745 13.1825C16.1829 13.6668 15.8585 14.0872 15.4386 14.3954C15.0187 14.7035 14.5203 14.8868 14.0008 14.9241L2.72552 15.6559C2.63182 15.6618 2.54236 15.697 2.46979 15.7566C2.39722 15.8161 2.34523 15.897 2.32117 15.9878C2.28504 16.0865 2.28049 16.1941 2.30814 16.2955C2.33579 16.397 2.39428 16.4873 2.47553 16.5541L11.1091 23.7401C11.5152 24.0819 11.8167 24.5312 11.9793 25.0364C12.1419 25.5417 12.1589 26.0825 12.0284 26.597L9.44867 36.7452C9.40156 36.9099 9.40655 37.0852 9.46296 37.247C9.51936 37.4088 9.62442 37.5491 9.76373 37.6489C9.88258 37.7397 10.0269 37.7912 10.1764 37.7959C10.3259 37.8006 10.4732 37.7585 10.5976 37.6754L19.545 32.0067C19.9804 31.7316 20.485 31.586 21 31.5866V31.5866Z" fill="#316EDA"/>
</svg>
