<svg width="52" height="54" viewBox="0 0 52 54" fill="none" xmlns="http://www.w3.org/2000/svg">
<path d="M26.756 19.0649C25.1778 18.909 23.59 19.2448 22.2101 20.0261C20.8301 20.8075 19.7254 21.9963 19.0471 23.4298C18.3689 24.8633 18.1503 26.4714 18.4214 28.0339C18.6924 29.5964 19.4397 31.037 20.5611 32.1583C21.6824 33.2797 23.123 34.027 24.6855 34.2981C26.248 34.5691 27.8561 34.3505 29.2896 33.6723C30.7231 32.994 31.9119 31.8893 32.6933 30.5093C33.4746 29.1294 33.8104 27.5416 33.6545 25.9634C33.4768 24.1943 32.6929 22.541 31.4357 21.2837C30.1784 20.0265 28.5251 19.2426 26.756 19.0649V19.0649ZM45.2763 26.7194C45.2714 27.5555 45.21 28.3903 45.0924 29.218L50.526 33.4798C50.7626 33.6759 50.922 33.9495 50.9759 34.2521C51.0298 34.5546 50.9747 34.8665 50.8204 35.1323L45.6801 44.0259C45.524 44.2891 45.28 44.4888 44.9911 44.5897C44.7022 44.6906 44.387 44.6863 44.1009 44.5776L38.7047 42.4046C38.4071 42.2861 38.0848 42.2433 37.7666 42.28C37.4484 42.3168 37.1443 42.4318 36.8815 42.615C36.0579 43.1821 35.1925 43.6859 34.2927 44.1221C34.0098 44.2596 33.7651 44.4646 33.5803 44.719C33.3954 44.9735 33.276 45.2696 33.2327 45.5811L32.4238 51.3367C32.3707 51.6407 32.2137 51.9168 31.9796 52.1178C31.7454 52.3188 31.4488 52.4323 31.1403 52.4388H20.8597C20.5563 52.4336 20.2637 52.3251 20.0302 52.1313C19.7967 51.9376 19.6361 51.67 19.575 51.3728L18.7673 45.6256C18.722 45.3106 18.5995 45.0117 18.4108 44.7555C18.2221 44.4993 17.973 44.2937 17.6857 44.1569C16.7869 43.7231 15.9245 43.2179 15.1065 42.6462C14.8446 42.464 14.5415 42.3498 14.2245 42.3139C13.9075 42.278 13.5865 42.3216 13.2905 42.4407L7.89547 44.6124C7.60956 44.7213 7.2944 44.7258 7.00551 44.6251C6.71662 44.5244 6.47254 44.325 6.31625 44.062L1.17598 35.1683C1.02143 34.9026 0.966208 34.5907 1.02013 34.2881C1.07405 33.9855 1.23362 33.7118 1.47043 33.5158L6.06266 29.9103C6.31425 29.7106 6.51198 29.4512 6.63791 29.1557C6.76383 28.8602 6.81397 28.5379 6.78377 28.2181C6.7405 27.7169 6.71406 27.217 6.71406 26.7158C6.71406 26.2146 6.7393 25.7219 6.78377 25.2315C6.81067 24.9137 6.75807 24.5941 6.63072 24.3017C6.50337 24.0092 6.30527 23.753 6.05425 23.5562L1.46442 19.9506C1.23145 19.7536 1.07525 19.481 1.02317 19.1803C0.971089 18.8797 1.02646 18.5704 1.17958 18.3065L6.31985 9.41289C6.47596 9.14967 6.71996 8.95001 7.00887 8.84909C7.29777 8.74817 7.61303 8.75248 7.89907 8.86124L13.2953 11.0342C13.5929 11.1527 13.9152 11.1955 14.2334 11.1588C14.5516 11.1221 14.8557 11.007 15.1185 10.8238C15.9421 10.2567 16.8075 9.75291 17.7073 9.31674C17.9902 9.17925 18.2349 8.97422 18.4197 8.71976C18.6046 8.4653 18.724 8.16923 18.7673 7.85771L19.5762 2.10209C19.6293 1.79812 19.7863 1.52204 20.0204 1.32102C20.2546 1.12 20.5512 1.00653 20.8597 1H31.1403C31.4437 1.00525 31.7363 1.1137 31.9698 1.30747C32.2033 1.50125 32.3639 1.76879 32.425 2.06603L33.2327 7.81324C33.278 8.1282 33.4005 8.42708 33.5892 8.6833C33.7779 8.93952 34.027 9.14514 34.3143 9.28189C35.2131 9.7157 36.0755 10.2209 36.8935 10.7926C37.1554 10.9748 37.4585 11.089 37.7755 11.1249C38.0925 11.1608 38.4135 11.1172 38.7095 10.9981L44.1045 8.82639C44.3904 8.71752 44.7056 8.71303 44.9945 8.81372C45.2834 8.91442 45.5275 9.11383 45.6838 9.37683L50.824 18.2705C50.9786 18.5362 51.0338 18.8481 50.9799 19.1507C50.926 19.4533 50.7664 19.727 50.5296 19.923L45.9373 23.5285C45.6847 23.7276 45.4858 23.9867 45.3588 24.2822C45.2318 24.5778 45.1807 24.9004 45.2102 25.2207C45.2499 25.7183 45.2763 26.2182 45.2763 26.7194V26.7194Z" stroke="#EE4E34" stroke-width="2" stroke-linecap="round" stroke-linejoin="round"/>
</svg>
